<svg height="511pt" viewBox="1 0 511.99902 511" width="511pt" xmlns="http://www.w3.org/2000/svg"><path d="m229.492188 407.585938c-26.398438 10.679687-45.144532 36.621093-45.144532 66.726562v30.085938h143.855469v-30.085938c0-29.667969-18.207031-55.292969-44-66.25" fill="#4890e3"/><path d="m256.089844 402.273438c-3.933594 0-7.792969.332031-11.554688.949218 34.085938 5.570313 60.316406 35.328125 60.316406 70.925782v30.058593h23.109376v-30.058593c0-39.53125-32.34375-71.875-71.871094-71.875zm0 0" fill="#2970d6"/><path d="m504.835938 504.398438v-30.085938c0-39.558594-32.367188-71.925781-71.925782-71.925781-39.5625 0-71.929687 32.367187-71.929687 71.925781v30.085938zm0 0" fill="#4890e3"/><path d="m432.585938 402.273438c-3.933594 0-7.789063.332031-11.554688.949218 34.085938 5.570313 60.320312 35.328125 60.320312 70.925782v30.058593h23.109376v-30.058593c0-39.53125-32.34375-71.875-71.875-71.875zm0 0" fill="#2970d6"/><path d="m371.574219 89.78125c.207031-2.273438.320312-4.578125.320312-6.902344 0-41.4375-33.589843-75.027344-75.027343-75.027344-35.59375 0-65.398438 24.785157-73.09375 58.039063-3.863282-2.214844-8.332032-3.488281-13.105469-3.488281-12.535157 0-23.023438 8.75-25.703125 20.476562h-6.269532c-39.640624 0-72.078124 32.433594-72.078124 72.074219 0 39.644531 32.4375 72.078125 72.078124 72.078125h162.199219c39.644531 0 72.078125-32.433594 72.078125-72.078125 0-28.6875-16.988281-53.59375-41.398437-65.171875zm0 0" fill="#91bcee"/><path d="m198.609375 65.34375c.347656.175781.695313.355469 1.03125.546875.09375-.40625.207031-.804687.308594-1.207031-.457031.203125-.898438.429687-1.339844.660156zm0 0" fill="#4890e3"/><path d="m371.574219 89.78125c.207031-2.273438.320312-4.578125.320312-6.902344 0-41.4375-33.589843-75.027344-75.027343-75.027344-4.105469 0-8.132813.34375-12.0625.980469 35.695312 5.773438 62.957031 36.71875 62.957031 74.042969 0 2.328125-.113281 4.628906-.320313 6.902344 24.410156 11.578125 41.398438 36.488281 41.398438 65.175781 0 39.644531-32.433594 72.078125-72.074219 72.078125h24.128906c39.644531 0 72.078125-32.433594 72.078125-72.078125 0-28.6875-16.988281-53.59375-41.398437-65.171875zm0 0" fill="#4890e3"/><path d="m474.5625 368.4375c0-27.367188-18.792969-49.554688-41.976562-49.554688-23.183594 0-41.976563 22.1875-41.976563 49.554688 0 27.371094 18.792969 49.558594 41.976563 49.558594 23.183593 0 41.976562-22.1875 41.976562-49.558594zm0 0" fill="#f0bca6"/><path d="m432.585938 318.878906c-4.007813 0-7.882813.679688-11.554688 1.917969 17.5625 5.925781 30.421875 25.003906 30.421875 47.640625s-12.859375 41.714844-30.421875 47.640625c3.671875 1.238281 7.546875 1.917969 11.554688 1.917969 23.183593 0 41.976562-22.1875 41.976562-49.558594s-18.792969-49.558594-41.976562-49.558594zm0 0" fill="#e3ac90"/><path d="m298.0625 368.4375c0-27.367188-18.792969-49.554688-41.976562-49.554688-23.183594 0-41.976563 22.1875-41.976563 49.554688 0 27.371094 18.792969 49.558594 41.976563 49.558594 23.183593 0 41.976562-22.1875 41.976562-49.558594zm0 0" fill="#f0bca6"/><path d="m256.085938 318.878906c-4.007813 0-7.878907.679688-11.554688 1.917969 17.5625 5.925781 30.425781 25.003906 30.425781 47.640625s-12.863281 41.714844-30.425781 47.640625c3.675781 1.238281 7.546875 1.917969 11.554688 1.917969 23.183593 0 41.976562-22.1875 41.976562-49.558594s-18.792969-49.558594-41.976562-49.558594zm0 0" fill="#e3ac90"/><path d="m53.652344 407.269531c-26.8125 10.476563-45.9375 36.636719-45.9375 67.042969v30.085938h143.855468v-30.085938c0-30.109375-18.75-56.054688-45.152343-66.730469" fill="#4890e3"/><path d="m79.65625 402.273438c-3.933594-.007813-7.789062.316406-11.558594.921874 34.074219 5.652344 60.238282 35.46875 60.152344 71.066407l-.070312 30.0625 23.105468.054687.074219-30.0625c.09375-39.53125-32.175781-71.949218-71.703125-72.042968zm0 0" fill="#2970d6"/><path d="m121.566406 368.4375c0-27.367188-18.792968-49.554688-41.976562-49.554688s-41.976563 22.1875-41.976563 49.554688c0 27.371094 18.792969 49.558594 41.976563 49.558594s41.976562-22.1875 41.976562-49.558594zm0 0" fill="#f0bca6"/><path d="m79.589844 318.878906c-4.011719 0-7.882813.679688-11.554688 1.917969 17.5625 5.925781 30.421875 25.003906 30.421875 47.640625s-12.859375 41.714844-30.421875 47.640625c3.671875 1.238281 7.542969 1.917969 11.554688 1.917969 23.183594 0 41.976562-22.1875 41.976562-49.558594s-18.792968-49.558594-41.976562-49.558594zm0 0" fill="#e3ac90"/><path d="m470.855469 404.632812c7.023437-9.859374 11.25-22.46875 11.25-36.195312 0-31.484375-22.214844-57.097656-49.519531-57.097656-27.304688 0-49.519532 25.613281-49.519532 57.097656 0 13.726562 4.226563 26.335938 11.25 36.191406-25.234375 13.917969-41.144531 40.378906-41.144531 69.519532v30.058593c0 4.167969 3.375 7.542969 7.539063 7.542969h143.746093c4.167969 0 7.542969-3.375 7.542969-7.542969v-30.058593c0-29.035157-15.9375-55.589844-41.144531-69.515626zm-38.269531-78.210937c18.988281 0 34.4375 18.847656 34.4375 42.015625s-15.449219 42.015625-34.4375 42.015625c-18.988282 0-34.4375-18.847656-34.4375-42.015625s15.449218-42.015625 34.4375-42.015625zm64.332031 170.246094h-128.664063v-22.519531c0-24.953126 14.414063-47.5 36.945313-58.167969 7.851562 6.03125 17.265625 9.558593 27.386719 9.558593 10.117187 0 19.53125-3.527343 27.382812-9.554687 22.503906 10.667969 36.949219 33.296875 36.949219 58.164063zm0 0"/><path d="m294.363281 404.621094c7.019531-9.859375 11.242188-22.460938 11.242188-36.183594 0-31.484375-22.214844-57.097656-49.519531-57.097656-27.304688 0-49.515626 25.613281-49.515626 57.097656 0 13.71875 4.21875 26.320312 11.234376 36.175781-24.496094 13.535157-41.132813 39.621094-41.132813 69.535157v30.058593c0 4.167969 3.375 7.542969 7.542969 7.542969h143.746094c4.164062 0 7.539062-3.375 7.539062-7.542969v-30.058593c0-29.914063-16.636719-55.996094-41.136719-69.527344zm-38.277343-78.199219c18.988281 0 34.4375 18.847656 34.4375 42.015625s-15.449219 42.015625-34.4375 42.015625c-18.988282 0-34.433594-18.847656-34.433594-42.015625s15.449218-42.015625 34.433594-42.015625zm64.332031 170.246094h-128.664063v-22.519531c0-25.675782 15.132813-47.867188 36.9375-58.175782 7.851563 6.035156 17.273438 9.566406 27.394532 9.566406 10.125 0 19.542968-3.527343 27.390624-9.5625 21.808594 10.304688 36.941407 32.492188 36.941407 58.171876zm0 0"/><path d="m117.929688 404.722656c4.0625-5.742187 7.203124-12.480468 9.132812-19.976562 1.039062-4.035156-1.390625-8.144532-5.421875-9.183594-4.035156-1.039062-8.148437 1.390625-9.183594 5.421875-4.464843 17.351563-17.980469 29.46875-32.867187 29.46875-18.988282 0-34.4375-18.847656-34.4375-42.015625s15.449218-42.015625 34.4375-42.015625c13.558594 0 25.910156 9.792969 31.464844 24.953125 1.433593 3.910156 5.765624 5.917969 9.675781 4.488281 3.910156-1.433593 5.917969-5.765625 4.484375-9.675781-7.753906-21.167969-25.664063-34.847656-45.625-34.847656-27.304688 0-49.519532 25.613281-49.519532 57.097656 0 13.707031 4.214844 26.296875 11.21875 36.148438-6.421874 3.550781-12.40625 8.003906-17.761718 13.335937-15.078125 15.003906-23.40625 34.902344-23.4570315 56.039063l-.0703125 30.058593c-.00390625 2 .785156 3.921875 2.195312 5.339844 1.410157 1.417969 3.328126 2.21875 5.328126 2.222656l143.746093.339844h.015625c4.15625 0 7.53125-3.367187 7.542969-7.523437l.070313-30.0625c.050781-21.132813-8.183594-41.074219-23.1875-56.148438-5.355469-5.382812-11.347657-9.878906-17.78125-13.464844zm25.832031 92.097656-128.660157-.304687.050782-22.519531c.042968-17.105469 6.792968-33.222656 19.011718-45.382813 5.332032-5.304687 11.414063-9.554687 17.992188-12.664062 7.859375 6.050781 17.292969 9.589843 27.433594 9.589843 10.101562 0 19.5625-3.429687 27.464844-9.46875 6.578124 3.140626 12.652343 7.417969 17.964843 12.757813 12.160157 12.21875 18.835938 28.367187 18.796875 45.472656zm0 0"/><path d="m451.140625 236.664062c0-6.609374-3.808594-12.316406-9.339844-15.085937v-54.746094c0-4.164062-3.375-7.542969-7.542969-7.542969h-14.167968c.074218-1.410156.113281-2.828124.113281-4.257812 0-28.820312-15.964844-55.59375-41.085937-69.574219.027343-.820312.039062-1.636719.039062-2.449219 0-45.496093-37.015625-82.507812-82.511719-82.507812-18.753906 0-37.117187 6.464844-51.699219 18.203125-12.09375 9.734375-21.226562 22.761719-26.277343 37.300781-2.660157-.660156-5.398438-.996094-8.15625-.996094-13.8125 0-25.875 8.164063-31.128907 20.460938h-.820312c-43.871094 0-79.5625 35.691406-79.5625 79.5625 0 1.425781.046875 2.84375.121094 4.257812h-19.53125c-4.164063 0-7.542969 3.378907-7.542969 7.542969v43.722657c-5.53125 2.773437-9.339844 8.480468-9.339844 15.085937 0 6.609375 3.808594 12.316406 9.339844 15.085937v76.007813c0 .539063.058594 1.066406.167969 1.570313 4.820312.46875 9.652344.710937 14.507812.855468.261719-.761718.40625-1.574218.40625-2.425781v-76.003906c5.53125-2.773438 9.339844-8.476563 9.339844-15.085938s-3.808594-12.316406-9.339844-15.085937v-36.183594h14.265625c3.355469 13.359375 10.175781 25.703125 20.011719 35.882812 14.414062 14.90625 33.671875 23.53125 54.234375 24.285157 4.171875.15625 7.660156-3.097657 7.8125-7.257813.152344-4.164062-3.097656-7.660156-7.261719-7.8125-16.644531-.609375-32.25-7.605468-43.941406-19.695312-11.714844-12.121094-18.167969-28.011719-18.167969-44.742188 0-35.554687 28.925781-64.480468 64.484375-64.480468h6.265625c3.515625 0 6.566407-2.433594 7.351563-5.863282 1.964844-8.59375 9.5-14.597656 18.332031-14.597656 3.277344 0 6.503906.859375 9.339844 2.484375 2.066406 1.1875 4.578125 1.328125 6.765625.375 2.191406-.957031 3.796875-2.886719 4.335937-5.214844 3.375-14.589843 11.703125-27.832031 23.445313-37.285156 12.085937-9.726563 26.695312-14.871094 42.246094-14.871094 37.179687 0 67.425781 30.25 67.425781 67.429688 0 2.035156-.097657 4.125-.285157 6.210937-.289062 3.148438 1.421876 6.144532 4.277344 7.5 22.511719 10.675782 37.058594 33.566406 37.058594 58.3125 0 35.554688-28.925781 64.480469-64.480469 64.480469h-132.449219c-4.164062 0-7.539062 3.375-7.539062 7.542969 0 4.164062 3.375 7.539062 7.539062 7.539062h41.1875v23.273438c-6.25 2.476562-10.679687 8.558594-10.679687 15.691406 0 7.128906 4.429687 13.214844 10.679687 15.6875v22.601562c0 4.164063 3.378907 7.539063 7.542969 7.539063 4.164063 0 7.539063-3.375 7.539063-7.539063v-23.953124c4.796875-2.976563 8-8.277344 8-14.335938 0-6.0625-3.203125-11.359375-8-14.335938v-24.628906h76.179687c37.199219 0 68.507813-25.667968 77.171875-60.222656h8.902344v47.203125c-5.53125 2.773437-9.339844 8.476563-9.339844 15.085937 0 6.609376 3.808594 12.316407 9.339844 15.085938v63.984375c0 4.164063 3.375 7.539063 7.542969 7.539063 4.164062 0 7.539062-3.375 7.539062-7.539063v-63.984375c5.53125-2.769531 9.339844-8.476562 9.339844-15.085938zm0 0" fill="#18191b"/></svg>