<svg height="512pt" viewBox="0 -15 512.001 512" width="512pt" xmlns="http://www.w3.org/2000/svg"><g fill-rule="evenodd"><path d="m333.675781 387.691406-72.167969-23.332031-72.164062 23.332031-10.792969 41.402344 82.957031 22.179688 82.957032-22.179688zm0 0" fill="#c4cccf"/><path d="m504.441406 341.027344-240.460937-19.542969-256.421875 19.542969v20.402344c0 14.4375 11.808594 26.257812 26.234375 26.257812h444.410156c14.425781 0 26.238281-11.820312 26.238281-26.257812zm0 0" fill="#eceff1"/><path d="m33.792969 8.070312c-14.425781 0-26.234375 11.820313-26.234375 26.257813v306.699219h496.882812v-306.699219c0-14.4375-11.808594-26.03125-26.234375-26.257813-14.199219-.230468-376.917969 0-444.414062 0zm0 0" fill="#546e7a"/><path d="m51.171875 306.417969h409.429687c3.09375 0 5.59375-2.53125 5.59375-5.597657v-248.875c0-3.097656-2.5-5.628906-5.59375-5.628906-10.222656 0-398.46875 0-409.429687 0-3.066406 0-5.59375 2.53125-5.59375 5.628906v248.875c0 3.066407 2.527344 5.597657 5.59375 5.597657zm0 0" fill="#8ebfe8"/><path d="m344.464844 429.09375h-189.652344c-12.179688 0-22.148438 9.972656-22.148438 22.164062v12.160157c0 5.515625 4.488282 10.03125 9.996094 10.03125h237.726563c5.476562 0 9.992187-4.515625 9.992187-10.03125v-12.160157c0-12.191406-9.992187-22.164062-22.175781-22.164062zm0 0" fill="#eceff1"/><path d="m466.195312 51.945312v248.875c0 3.066407-2.5 5.597657-5.59375 5.597657h-30.527343v34.613281h74.367187v-306.703125c0-14.4375-11.808594-25.945313-26.234375-26.257813-2.953125-.058593-21.011719-.085937-48.328125-.085937v26.257813c.140625 1.023437.199219 2.046874.199219 3.066406v9.011718h30.523437c3.09375 0 5.59375 2.527344 5.59375 5.625zm0 0" fill="#35505c"/><path d="m504.441406 341.027344h-74.367187v46.660156h48.132812c14.425781 0 26.234375-11.820312 26.234375-26.257812zm0 0" fill="#c4cccf"/><path d="m329.585938 429.09375c12.210937 0 22.175781 9.972656 22.175781 22.164062v12.160157c0 5.515625-4.515625 10.03125-9.992188 10.03125h38.617188c5.476562 0 9.992187-4.515625 9.992187-10.03125v-12.160157c0-12.191406-9.992187-22.164062-22.175781-22.164062zm0 0" fill="#c4cccf"/><path d="m295.058594 387.691406h-105.714844l-5.851562 22.53125h95.351562c11.8125 0 23.113281-.480468 25.242188 7.5625l1.761718 11.308594h38.617188l-10.789063-41.402344zm0 0" fill="#90a4ae"/><path d="m429.878906 46.320312v260.097657h30.722656c3.09375 0 5.59375-2.53125 5.59375-5.597657v-248.875c0-3.097656-2.5-5.628906-5.59375-5.628906h-30.722656zm0 0" fill="#519ad6"/><path d="m322.488281 217.414062 12.4375-11.734374c11.300781-11.480469 12.550781-9.773438 28.875-9.773438h34.8125c6.558594 0 11.898438-5.371094 11.898438-11.910156v-73.199219c0-6.566406-5.335938-11.9375-11.898438-11.9375h-117.214843c-6.53125 0-11.898438 5.371094-11.898438 11.9375v73.199219c0 6.539062 5.367188 11.910156 11.898438 11.910156h13.886718c7.183594 0 7.183594 0 7.183594 8.410156v8.042969c0 7.359375 9.683594 14.832031 20.019531 5.054687zm0 0" fill="#eceff1"/><path d="m389.671875 110.796875v73.203125c0 6.535156-5.339844 11.90625-11.898437 11.90625h20.839843c6.558594 0 11.898438-5.371094 11.898438-11.90625v-73.203125c0-6.5625-5.335938-11.933594-11.898438-11.933594h-20.839843c6.558593-.003906 11.898437 5.367188 11.898437 11.933594zm0 0" fill="#c4cccf"/><path d="m191.585938 306.417969h89.105468c-2.925781-51.066407-44.527344-76.5-83.652344-81.585938-9.769531-4.207031-26.949218-4.289062-34.671874-.054687-37.394532 4.828125-84.359376 32.167968-84.359376 81.640625zm0 0" fill="#f55a8e"/><path d="m235.484375 146.628906h-31.972656c-21.75 0-30.835938-5.398437-38.417969-10.003906-10.421875-6.308594-12.808594-11.082031-21.808594 1.878906-4.003906 5.769532-7.183594 8.125-12.636718 8.125h-6.984376v30.265625c0 22.023438 17.464844 40.917969 38.703126 47.882813 5.992187 1.761718 10.933593 2.839844 17.207031 2.867187 5.9375.058594 11.839843-.964843 17.464843-2.8125 5.167969-1.703125 10.109376-4.148437 14.621094-7.160156 13.914063-9.292969 23.824219-24.15625 23.824219-40.777344zm0 0" fill="#ffdda6"/><path d="m235.484375 155.867188c.257813-2.785157.027344-6.652344 0-9.238282-.425781-76.867187-111.820313-66.578125-111.820313-3.550781v12.789063h6.984376c5.453124 0 8.632812-2.359376 12.636718-8.128907 9-12.957031 11.386719-8.183593 21.808594-1.875 7.582031 4.605469 16.667969 10.003907 38.417969 10.003907zm0 0" fill="#546e7a"/><path d="m216.003906 146.628906c0 2.585938.226563 6.453125 0 9.234375h19.480469c.253906-2.785156.027344-6.648437 0-9.234375-.226563-42.027344-33.648437-58-63.890625-53.535156 23.542969 3.578125 44.214844 20.488281 44.410156 53.535156zm0 0" fill="#37474f"/><path d="m216.003906 177.035156c0 16.59375-9.910156 31.457032-23.824218 40.75-2.328126 1.5625-4.742188 2.957032-7.238282 4.175782-2.414062 1.167968-4.886718 2.160156-7.414062 2.984374-2.296875.769532-4.65625 1.394532-7.039063 1.847657 1.191407.226562 2.382813.398437 3.605469.539062 1.730469.199219 3.519531.316407 5.453125.316407h.027344c5.761719.054687 11.5-.910157 16.949219-2.644532.171874-.058594.34375-.113281.511718-.171875 5.167969-1.703125 10.109375-4.148437 14.625-7.160156 13.914063-9.292969 23.824219-24.15625 23.824219-40.777344v-21.027343h-19.480469zm0 0" fill="#fcc368"/><path d="m242.925781 306.417969h37.765625c-2.925781-51.066407-44.527344-76.5-83.652344-81.585938-5.625 1.847657-11.527343 2.871094-17.464843 2.8125-1.503907 0-2.925781-.054687-4.289063-.199219 37.253906 11.878907 65.253906 37.710938 67.640625 78.972657zm0 0" fill="#ba4583"/></g><path d="m281.398438 203.460938h13.511718v.855468 8.042969c0 6.75 4.273438 13.125 10.636719 15.863281 1.453125.628906 3.914063 1.425782 7.015625 1.425782 4.179688 0 9.523438-1.453126 15.109375-6.738282l12.4375-11.734375c.070313-.0625.136719-.128906.199219-.195312 7.605468-7.726563 7.609375-7.726563 17.859375-7.574219 1.667969.027344 3.527343.054688 5.632812.054688h34.8125c10.726563 0 19.457031-8.730469 19.457031-19.464844v-73.203125c0-10.746094-8.726562-19.492188-19.457031-19.492188h-117.214843c-10.726563 0-19.453126 8.746094-19.453126 19.492188v73.203125c0 10.734375 8.726563 19.464844 19.453126 19.464844zm-4.339844-92.664063c0-2.375 1.988281-4.378906 4.339844-4.378906h117.214843c2.394531 0 4.34375 1.964843 4.34375 4.378906v73.199219c0 2.359375-1.988281 4.351562-4.34375 4.351562h-34.808593c-2.023438 0-3.8125-.027344-5.410157-.050781-12.941406-.195313-17.207031.269531-28.757812 11.980469l-12.34375 11.648437c-2.230469 2.109375-4.386719 3.011719-5.769531 2.414063-.976563-.417969-1.496094-1.421875-1.496094-1.984375v-8.039063c0-5.480468 0-9.097656-2.710938-12.269531-3.160156-3.703125-7.46875-3.703125-12.03125-3.703125h-13.882812c-2.355469 0-4.34375-1.992188-4.34375-4.347656zm0 0"/><path d="m309.226562 154.953125h.226563c4.175781 0 7.558594-3.382813 7.558594-7.554687 0-4.175782-3.382813-7.558594-7.558594-7.558594h-.226563c-4.171874 0-7.554687 3.382812-7.554687 7.558594 0 4.171874 3.382813 7.554687 7.554687 7.554687zm0 0"/><path d="m339.269531 154.953125h.226563c4.175781 0 7.558594-3.382813 7.558594-7.554687 0-4.175782-3.382813-7.558594-7.558594-7.558594h-.226563c-4.175781 0-7.558593 3.382812-7.558593 7.558594 0 4.171874 3.382812 7.554687 7.558593 7.554687zm0 0"/><path d="m369.339844 154.953125h.195312c4.175782 0 7.558594-3.382813 7.558594-7.554687 0-4.175782-3.382812-7.558594-7.558594-7.558594h-.195312c-4.175782 0-7.558594 3.382812-7.558594 7.558594 0 4.171874 3.382812 7.554687 7.558594 7.554687zm0 0"/><path d="m180.058594 273.964844h-.199219c-4.175781 0-7.558594 3.386718-7.558594 7.558594 0 4.175781 3.382813 7.558593 7.558594 7.558593h.199219c4.171875 0 7.554687-3.386719 7.554687-7.558593 0-4.171876-3.382812-7.558594-7.554687-7.558594zm0 0"/><path d="m179.148438 262.765625h.199218c4.171875 0 7.554688-3.382813 7.554688-7.554687 0-4.175782-3.382813-7.558594-7.554688-7.558594h-.199218c-4.175782 0-7.558594 3.386718-7.558594 7.558594.003906 4.171874 3.386718 7.554687 7.558594 7.554687zm0 0"/><path d="m478.371094.515625c-.050782-.003906-.097656-.003906-.148438-.003906l-221.226562-.511719c-.011719 0-.023438 0-.035156 0l-223.167969.511719c-18.632813 0-33.792969 15.167969-33.792969 33.816406v327.105469c0 18.644531 15.160156 33.8125 33.792969 33.8125h145.769531l-6.851562 26.289062h-17.898438c-16.378906 0-29.703125 13.332032-29.703125 29.722656v12.164063c0 9.695313 7.871094 17.585937 17.550781 17.585937h237.726563c9.675781 0 17.550781-7.890624 17.550781-17.585937v-12.164063c0-16.390624-13.335938-29.722656-29.734375-29.722656h-17.898437l-6.851563-26.289062h134.753906c18.632813 0 33.792969-15.167969 33.792969-33.8125v-327.105469c0-18.246094-15.085938-33.414063-33.628906-33.8125zm-95.546875 450.742187v12.164063c0 1.339844-1.117188 2.472656-2.4375 2.472656h-237.726563c-1.320312 0-2.4375-1.132812-2.4375-2.472656v-12.164063c0-8.054687 6.546875-14.605468 14.589844-14.605468h23.714844.03125.019531 165.859375.023438.027343 23.714844c8.0625 0 14.621094 6.550781 14.621094 14.605468zm-48.136719-29.722656h-146.355469l6.851563-26.289062h132.652344zm143.519531-41.402344h-444.414062c-10.300781 0-18.679688-8.390624-18.679688-18.699218v-12.847656h224.234375c4.171875 0 7.554688-3.382813 7.554688-7.554688 0-4.175781-3.382813-7.558594-7.554688-7.558594h-224.234375v-299.144531c0-10.3125 8.378907-18.703125 18.699219-18.703125l223.167969-.511719 221.128906.511719c10.359375.261719 18.777344 8.636719 18.777344 18.699219v299.144531h-222.871094c-4.171875 0-7.554687 3.382812-7.554687 7.558594 0 4.175781 3.382812 7.558594 7.554687 7.558594h222.871094v12.84375c0 10.3125-8.378907 18.703124-18.679688 18.703124zm0 0"/><path d="m460.601562 313.972656c7.25 0 13.152344-5.898437 13.152344-13.152344v-248.875c0-7.269531-5.902344-13.183593-13.152344-13.183593h-185.390624c-4.175782 0-7.558594 3.382812-7.558594 7.554687 0 4.175782 3.382812 7.558594 7.558594 7.558594h183.425781v244.984375h-171.0625c-5.46875-42.914063-36.777344-66.992187-68.792969-76.96875 15.253906-11.371094 24.261719-27.960937 24.261719-45v-20.839844c.175781-2.375.113281-5.003906.050781-7.347656-.023438-.777344-.042969-1.511719-.050781-2.117187-.238281-42.703126-31.085938-61.785157-61.621094-61.785157-.066406 0-.136719 0-.203125 0-16.210938.046875-32.308594 5.5-44.167969 14.964844-13.503906 10.777344-20.941406 26.15625-20.941406 43.308594v33.816406c0 17.683594 9.738281 34.167969 24.40625 45.070313-14.453125 4.609374-28.097656 11.878906-39.179687 21.074218-18.117188 15.039063-28.570313 34.214844-30.539063 55.820313h-17.664063v-244.980469h187.179688c4.171875 0 7.554688-3.382812 7.554688-7.554688 0-4.175781-3.382813-7.558593-7.554688-7.558593h-189.140625c-7.25 0-13.152344 5.914062-13.152344 13.183593v248.875c0 7.253907 5.902344 13.15625 13.152344 13.15625h409.429687zm-329.378906-170.894531c0-27.941406 25.78125-43.089844 50.039063-43.160156h.152343c21.375 0 46.320313 12.234375 46.511719 46.792969.007813.496093.019531 1.03125.035157 1.597656h-24.449219c-19.832031 0-27.625-4.730469-34.507813-8.910156-1.390625-.84375-2.632812-1.660157-3.835937-2.449219-3.878907-2.550781-7.5625-4.976563-12.121094-4.976563-.535156 0-1.085937.035156-1.648437.105469-6.203126.78125-10.546876 5.917969-14.324219 11.351563-3.019531 4.355468-4.308594 4.820312-5.855469 4.871093v-5.222656zm0 33.816406v-13.492187c9.246094-.21875 14.253906-5.566406 18.269532-11.355469 1.953124-2.8125 3.167968-4.109375 3.8125-4.691406.921874.484375 2.355468 1.425781 3.5625 2.21875 1.253906.828125 2.679687 1.765625 4.304687 2.746093 7.714844 4.6875 18.28125 11.101563 42.339844 11.101563h24.417969v13.46875c0 13.042969-7.652344 25.9375-20.476563 34.5-3.789063 2.542969-7.863281 4.558594-12.058594 6.011719-.574219.117187-1.128906.300781-1.65625.542968-4.660156 1.4375-9.441406 2.175782-14.117187 2.140626-4.898438-.027344-9.707032-.828126-14.28125-2.25-.410156-.175782-.835938-.316407-1.277344-.417969-18.492188-6.277344-32.839844-22.816407-32.839844-40.523438zm30.355469 55.621094c5.742187 1.703125 11.769531 2.648437 17.941406 2.6875.140625 0 .285157.003906.429688.003906 5.890625 0 11.867187-.921875 17.691406-2.660156 31.570313 4.605469 68.207031 24.5625 74.648437 66.3125h-24.589843v-12.503906c0-4.175781-3.382813-7.558594-7.558594-7.558594-4.171875 0-7.554687 3.382813-7.554687 7.558594v12.503906h-106.445313v-12.503906c0-4.175781-3.382813-7.558594-7.558594-7.558594s-7.558593 3.382813-7.558593 7.558594v12.503906h-25.039063c4.578125-41.132813 46.132813-61.945313 75.59375-66.34375zm0 0"/></svg>